<?xml version="1.0" encoding="utf-8"?>
<!-- Generator: Adobe Illustrator 27.5.0, SVG Export Plug-In . SVG Version: 6.00 Build 0)  -->
<svg version="1.1" xmlns="http://www.w3.org/2000/svg" xmlns:xlink="http://www.w3.org/1999/xlink" x="0px" y="0px"
	 viewBox="0 0 500 500" style="enable-background:new 0 0 500 500;" xml:space="preserve">
<g id="BACKGROUND">
	<rect style="fill:#FFFFFF;" width="220" height="220" x="28.50%" y="28.5%" />
</g>
<g id="OBJECTS">
	<g>
		<g>
			<linearGradient id="SVGID_1_" gradientUnits="userSpaceOnUse" x1="252.705" y1="159.52" x2="252.705" y2="282.2459">
				<stop  offset="0" style="stop-color:#1D4DDA"/>
				<stop  offset="0.3032" style="stop-color:#3887FE"/>
				<stop  offset="1" style="stop-color:#5100BD"/>
			</linearGradient>
			<path style="fill:url(#SVGID_1_);" d="M328.85,236.11c-39.17-2.01-70.58-33.42-72.59-72.59c-0.07-1.33-0.1-2.66-0.1-4h-59.95
				c-13.06,0-23.65,10.59-23.65,23.65v53.74c0,13.06,10.59,23.65,23.65,23.65h15.54v17.54c0,3.33,3.74,5.3,6.48,3.41l30.46-20.95
				h60.51c13.06,0,23.65-10.59,23.65-23.65v-0.7C331.51,236.21,330.18,236.18,328.85,236.11z M217.46,210.04
				c0,5.69-4.61,10.3-10.3,10.3s-10.3-4.61-10.3-10.3c0-5.69,4.61-10.3,10.3-10.3S217.46,204.35,217.46,210.04z M234.76,210.04
				c0-5.69,4.62-10.3,10.31-10.3c5.69,0,10.3,4.61,10.3,10.3c0,5.69-4.61,10.3-10.3,10.3C239.38,220.34,234.76,215.73,234.76,210.04
				z"/>
			
				<linearGradient id="SVGID_00000083811631318973538370000007041771987396860301_" gradientUnits="userSpaceOnUse" x1="204.523" y1="155.6848" x2="275.6859" y2="278.9425">
				<stop  offset="0" style="stop-color:#1D4DDA"/>
				<stop  offset="0.3032" style="stop-color:#3887FE"/>
				<stop  offset="1" style="stop-color:#5100BD"/>
			</linearGradient>
			<path style="fill:url(#SVGID_00000083811631318973538370000007041771987396860301_);" d="M256.26,163.52h-60.05
				c-10.84,0-19.65,8.82-19.65,19.65v53.74c0,10.83,8.81,19.65,19.65,19.65h19.54v21.54c0,0.14,0.15,0.15,0.15,0.15l0.06-0.04
				l31.48-21.65h61.76c10.83,0,19.65-8.82,19.65-19.65v-0.8C289.68,234.1,258.27,202.69,256.26,163.52z M245.07,220.34
				c-5.69,0-10.31-4.61-10.31-10.3c0-5.69,4.62-10.3,10.31-10.3c5.69,0,10.3,4.61,10.3,10.3
				C255.37,215.73,250.76,220.34,245.07,220.34z M207.16,220.34c-5.69,0-10.3-4.61-10.3-10.3c0-5.69,4.61-10.3,10.3-10.3
				s10.3,4.61,10.3,10.3C217.46,215.73,212.85,220.34,207.16,220.34z"/>
			
				<linearGradient id="SVGID_00000062171152910239512590000012476321071767062426_" gradientUnits="userSpaceOnUse" x1="200.5102" y1="221.5581" x2="213.8081" y2="198.5255">
				<stop  offset="0" style="stop-color:#1D4DDA"/>
				<stop  offset="0.3032" style="stop-color:#3887FE"/>
				<stop  offset="1" style="stop-color:#5100BD"/>
			</linearGradient>
			<path style="fill:url(#SVGID_00000062171152910239512590000012476321071767062426_);" d="M207.16,196.74
				c-7.34,0-13.3,5.97-13.3,13.3c0,7.34,5.96,13.3,13.3,13.3c7.33,0,13.3-5.96,13.3-13.3C220.46,202.71,214.49,196.74,207.16,196.74
				z M207.16,220.34c-5.69,0-10.3-4.61-10.3-10.3c0-5.69,4.61-10.3,10.3-10.3s10.3,4.61,10.3,10.3
				C217.46,215.73,212.85,220.34,207.16,220.34z"/>
			
				<linearGradient id="SVGID_00000044863637803291561790000015796293629809334166_" gradientUnits="userSpaceOnUse" x1="238.4168" y1="221.5576" x2="251.7153" y2="198.5239">
				<stop  offset="0" style="stop-color:#1D4DDA"/>
				<stop  offset="0.3032" style="stop-color:#3887FE"/>
				<stop  offset="1" style="stop-color:#5100BD"/>
			</linearGradient>
			<path style="fill:url(#SVGID_00000044863637803291561790000015796293629809334166_);" d="M245.07,196.74
				c-7.34,0-13.31,5.97-13.31,13.3c0,7.34,5.97,13.3,13.31,13.3c7.33,0,13.3-5.96,13.3-13.3
				C258.37,202.71,252.4,196.74,245.07,196.74z M245.07,220.34c-5.69,0-10.31-4.61-10.31-10.3c0-5.69,4.62-10.3,10.31-10.3
				c5.69,0,10.3,4.61,10.3,10.3C255.37,215.73,250.76,220.34,245.07,220.34z"/>
		</g>
		<g>
			
				<radialGradient id="SVGID_00000033352624576785799140000002851310488373966494_" cx="329.081" cy="155.3436" r="13.9825" gradientUnits="userSpaceOnUse">
				<stop  offset="0" style="stop-color:#FFBF0B"/>
				<stop  offset="1" style="stop-color:#FB5507"/>
			</radialGradient>
			<circle style="fill:url(#SVGID_00000033352624576785799140000002851310488373966494_);" cx="332.848" cy="159.524" r="9.47"/>
			<g>
				
					<linearGradient id="SVGID_00000155137187369281759360000014291873255778433430_" gradientUnits="userSpaceOnUse" x1="271.198" y1="157.383" x2="326.6582" y2="228.7396">
					<stop  offset="0" style="stop-color:#FB5507"/>
					<stop  offset="0.3066" style="stop-color:#FE9C0A"/>
					<stop  offset="1" style="stop-color:#FF006C"/>
				</linearGradient>
				<path style="fill:url(#SVGID_00000155137187369281759360000014291873255778433430_);" d="M313.62,205.049
					c-8.856-3.744-16.415-10.019-21.743-17.908c-5.328-7.894-8.43-17.359-8.433-27.618h-15c-0.001,8.872,1.802,17.362,5.064,25.072
					c4.894,11.568,13.051,21.386,23.326,28.329c10.27,6.944,22.702,11.007,36.015,11.004v-15
					C326.006,208.928,319.526,207.546,313.62,205.049z"/>
				
					<linearGradient id="SVGID_00000065760547487759923740000000576673119753837459_" gradientUnits="userSpaceOnUse" x1="298.6264" y1="157.1048" x2="330.7757" y2="198.4689">
					<stop  offset="0" style="stop-color:#FB5507"/>
					<stop  offset="0.3066" style="stop-color:#FE9C0A"/>
					<stop  offset="1" style="stop-color:#FF006C"/>
				</linearGradient>
				<path style="fill:url(#SVGID_00000065760547487759923740000000576673119753837459_);" d="M311.969,190.477
					c5.949,4.025,13.173,6.384,20.879,6.381v-13.684c0-0.442-0.014-0.881-0.038-1.317c-3.09-0.006-5.996-0.629-8.653-1.751
					c-3.998-1.69-7.424-4.532-9.833-8.1c-2.402-3.564-3.798-7.807-3.808-12.444c-0.436-0.024-0.875-0.038-1.317-0.038h-13.684
					c-0.001,5.134,1.045,10.064,2.937,14.534C301.29,180.768,306.014,186.453,311.969,190.477z"/>
			</g>
		</g>
	</g>
</g>
<g id="TEXTS">
	<g>
    <g><text transform="matrix(1 0 0 1 218 325.665)" style="fill:#000000; font-family:'Montserrat-Italic'; font-size:44px;">ERS</text></g>
	</g>
	<g>
		
			<text transform="matrix(1 0 0 1 182.5781 350.665)" style="fill:#808285; font-family:'Montserrat-Italic'; font-size:15.9542px;">By: Vishal Kesharwani</text>
	</g>
</g>
</svg>
